<?xml version="1.0" encoding="UTF-8" standalone="no"?>
<svg
   xmlns:dc="http://purl.org/dc/elements/1.1/"
   xmlns:cc="http://creativecommons.org/ns#"
   xmlns:rdf="http://www.w3.org/1999/02/22-rdf-syntax-ns#"
   xmlns:svg="http://www.w3.org/2000/svg"
   xmlns="http://www.w3.org/2000/svg"
   xmlns:sodipodi="http://sodipodi.sourceforge.net/DTD/sodipodi-0.dtd"
   xmlns:inkscape="http://www.inkscape.org/namespaces/inkscape"
   sodipodi:docname="logo.svg"
   inkscape:version="1.0 (4035a4fb49, 2020-05-01)"
   id="svg8"
   version="1.1"
   viewBox="0 0 39.34861 13.083548"
   height="13.083549mm"
   width="39.34861mm">
  <defs
     id="defs2">
    <rect
       id="rect12"
       height="26.558821"
       width="69.257347"
       y="51.293865"
       x="56.546429" />
  </defs>
  <sodipodi:namedview
     fit-margin-bottom="0"
     fit-margin-right="0"
     fit-margin-left="0"
     fit-margin-top="0"
     inkscape:window-maximized="1"
     inkscape:window-y="27"
     inkscape:window-x="1920"
     inkscape:window-height="1103"
     inkscape:window-width="1920"
     showgrid="false"
     inkscape:document-rotation="0"
     inkscape:current-layer="g18"
     inkscape:document-units="mm"
     inkscape:cy="54"
     inkscape:cx="91"
     inkscape:zoom="5.6"
     inkscape:pageshadow="2"
     inkscape:pageopacity="0.0"
     borderopacity="1.0"
     bordercolor="#666666"
     pagecolor="#ffffff"
     id="base" />
  <metadata
     id="metadata5">
    <rdf:RDF>
      <cc:Work
         rdf:about="">
        <dc:format>image/svg+xml</dc:format>
        <dc:type
           rdf:resource="http://purl.org/dc/dcmitype/StillImage" />
        <dc:title></dc:title>
      </cc:Work>
    </rdf:RDF>
  </metadata>
  <g
     transform="translate(-0.25089975,3.7931808)"
     id="layer1"
     inkscape:groupmode="layer"
     inkscape:label="Ebene 1">
    <g
       style="stroke:#ff9a9a;stroke-width:9.06201;stroke-miterlimit:4;stroke-dasharray:none;stroke-opacity:1;paint-order:markers stroke fill"
       transform="matrix(0.07510429,0.01806143,-0.01806143,0.07510429,10.030164,-2.1753435)"
       stroke="none"
       stroke-width="1"
       fill="none"
       fill-rule="evenodd"
       id="g22">
      <g
         style="stroke:#ff9a9a;stroke-width:9.06201;stroke-miterlimit:4;stroke-dasharray:none;stroke-opacity:1;paint-order:markers stroke fill"
         transform="translate(-448.95006,-598.27149)"
         fill="#000000"
         id="g20">
        <g
           style="stroke:#ff9a9a;stroke-width:9.06201;stroke-miterlimit:4;stroke-dasharray:none;stroke-opacity:1;paint-order:markers stroke fill"
           transform="translate(446,610)"
           id="g18">
          <path
             d="m 22.380859,18.917969 a 3.430963,3.430963 0 0 0 -3.117187,2.080078 L -0.40820312,66.939453 a 3.430963,3.430963 0 0 0 5.12890622,4.15625 c 6.0136519,-4.233777 11.9122879,-7.123429 17.4472659,-7.792969 5.534978,-0.669539 10.804956,0.618186 16.617187,5.455078 a 3.430963,3.430963 0 0 0 5.353516,-3.976562 l -18.5625,-43.773438 a 3.430963,3.430963 0 0 0 -3.195313,-2.089843 z m 0.02148,12.18164 4.921875,11.607422 C 26.028124,44.382964 25.031226,45.2271 24.634766,45.361328 24.137102,45.529821 23.717281,45.459576 22.34375,45 21.109808,44.58713 19.213074,43.940897 16.898438,43.951172 Z m 7.892578,18.615235 3.5625,8.402344 c -4.171268,-1.549846 -8.392242,-2.12355 -12.513672,-1.625 -3.892322,0.470835 -7.650893,1.746675 -11.314453,3.501953 l 3.132812,-7.314453 c 1.642852,-1.394462 2.782775,-1.887497 3.554688,-1.949219 0.900519,-0.07201 1.866707,0.245891 3.449219,0.77539 1.582511,0.529499 4.009528,1.254237 6.669922,0.353516 1.235424,-0.418274 2.36053,-1.17108 3.458984,-2.144531 z M 235.1975,-56.877912 c -0.13309,-0.187996 -0.45482,-0.242466 -0.64275,-0.109274 l -2.89864,1.49096 -3.04959,-1.51046 c -0.13308,-0.187983 -0.32138,-0.05466 -0.5094,0.0787 -0.18803,0.133361 -0.24269,0.454757 -0.24269,0.454757 l 0.6056,3.244083 -2.36523,2.242952 c -0.18803,0.13336 -0.24268,0.454757 -0.10922,0.642673 0.13309,0.187983 0.26681,0.375852 0.58829,0.430371 l 3.40152,0.413052 1.49091,2.898673 c 0.13309,0.18799 0.26681,0.375845 0.45483,0.242467 0,0 0.18802,-0.133361 0.18802,-0.133361 0,0 0.18802,-0.133361 0.18802,-0.133361 l 1.51051,-3.049618 3.37743,-0.417626 c 0.18802,-0.13336 0.37604,-0.266717 0.56394,-0.400043 0.0545,-0.321353 -0.0786,-0.509361 -0.0786,-0.509361 l -2.43095,-2.231872 0.54643,-3.213518 c -0.32139,-0.05466 -0.26681,-0.375839 -0.58829,-0.43037 z m -10.36287,46.294565 c 0.006,-0.230394 -0.21876,-0.466724 -0.44895,-0.472733 l -3.21388,-0.544053 -1.53563,-3.036998 c 0.006,-0.230381 -0.22448,-0.236361 -0.45492,-0.242297 -0.23045,-0.006 -0.46686,0.218524 -0.46686,0.218524 l -1.45976,2.959714 -3.23769,0.377598 c -0.23045,-0.006 -0.46686,0.218525 -0.4727,0.44893 -0.006,0.230381 -0.0117,0.460787 0.21292,0.697117 l 2.47512,2.3695326 -0.54407,3.213905 c -0.006,0.2303806 -0.0117,0.4607864 0.21876,0.4667232 0,0 0.23044,0.00596 0.23044,0.00596 0,0 0.23045,0.00596 0.23045,0.00596 l 3.03705,-1.5356178 2.95377,1.6901875 c 0.23044,0.00596 0.46089,0.011924 0.69119,0.017828 0.23642,-0.2244741 0.24226,-0.4548799 0.24226,-0.4548799 l -0.60802,-3.2436204 2.36361,-2.2446937 c -0.22448,-0.2363605 0.0117,-0.4607865 -0.21292,-0.6971165 z m 98.72647,-43.57544 c 0.006,-0.230387 -0.21876,-0.466724 -0.44895,-0.472726 l -3.21388,-0.544056 -1.53564,-3.036997 c 0.006,-0.230387 -0.22447,-0.236359 -0.45491,-0.242301 -0.23045,-0.0059 -0.46686,0.218538 -0.46686,0.218538 l -1.45976,2.959712 -3.23769,0.377601 c -0.23044,-0.0059 -0.46685,0.218537 -0.47269,0.448929 -0.006,0.230387 -0.0117,0.460783 0.21291,0.697111 l 2.47512,2.369533 -0.54407,3.213906 c -0.006,0.23038 -0.0117,0.460786 0.21876,0.466723 0,0 0.23044,0.006 0.23044,0.006 0,0 0.23045,0.006 0.23045,0.006 l 3.03705,-1.535618 2.95377,1.690188 c 0.23044,0.006 0.46089,0.01192 0.69119,0.01783 0.23642,-0.224474 0.24226,-0.45488 0.24226,-0.45488 l -0.60802,-3.243621 2.36361,-2.244693 c -0.22448,-0.236359 0.0117,-0.460782 -0.21292,-0.697111 z m -115.01151,15.215952 c 0.82627,0.505874 1.9054,0.598642 2.57145,0.438468 0.6661,-0.160186 1.58506,-0.733465 2.09094,-1.559703 1.01176,-1.652464 0.53123,-3.650635 -1.12123,-4.662393 l -13.21972,-8.094073 c -1.65246,-1.011756 -3.65063,-0.531233 -4.6624,1.121234 -1.01175,1.652463 -0.53122,3.650635 1.12124,4.662392 z m 113.58139,11.17496 c 0.48053,1.998181 2.133,3.009948 4.13117,2.529419 l 7.99267,-1.922115 c 1.99817,-0.480528 3.00993,-2.133004 2.5294,-4.131185 -0.48053,-1.998167 -2.133,-3.00992 -4.13116,-2.529392 l -8.32571,2.002205 c -1.66513,0.400439 -2.6769,2.052901 -2.19637,4.051068 z m -44.80236,11.137431 c 0.48053,1.99818 2.13301,3.009947 4.13118,2.529418 l 27.97434,-6.727401 c 1.99817,-0.480529 3.00994,-2.133005 2.5294,-4.131185 -0.48052,-1.998168 -2.133,-3.009921 -4.13116,-2.529392 l -28.30739,6.807492 c -1.66513,0.400438 -2.6769,2.0529 -2.19637,4.051068 z m -37.56348,-3.836665 c 0.82627,0.505874 1.90541,0.598642 2.57146,0.438468 0.66609,-0.160186 1.58505,-0.733465 2.09093,-1.559703 1.01176,-1.652463 0.53123,-3.650635 -1.12123,-4.662391 l -21.48204,-13.152869 c -1.65246,-1.011756 -3.65063,-0.531232 -4.6624,1.121235 -1.01175,1.652463 -0.53122,3.650634 1.12124,4.66239 z m 32.87701,-6.849552 c 0.99902,-0.24025 1.58504,-0.733463 2.09092,-1.5597 l 23.27047,-38.006679 c 1.01176,-1.652462 0.53123,-3.650631 -1.12123,-4.66239 -1.65247,-1.011759 -3.65064,-0.531227 -4.6624,1.121234 l -23.27047,38.006678 c -1.01175,1.652461 -0.53122,3.650632 1.12124,4.662392 0.49322,0.585966 1.57238,0.678729 2.57147,0.438465 z m -15.68171,-2.217685 c 1.99817,-0.480529 3.00993,-2.132995 2.52941,-4.131162 l -11.53269,-47.956026 c -0.48053,-1.998167 -2.133,-3.009924 -4.13117,-2.529396 -1.99817,0.480529 -3.00993,2.132992 -2.5294,4.13116 l 11.61278,48.289052 c 0.40044,1.66514 2.0529,2.676901 4.05107,2.196372 z M -25.905511,34.715953 c -4.262762,1.025129 -8.551617,3.325035 -12.85937,6.89747 -4.240326,3.462257 -8.171875,7.792747 -11.807467,12.988429 -3.568083,5.085511 -6.704767,10.819697 -9.398313,17.197992 -2.626104,6.268126 -4.453402,12.716954 -5.487745,19.353828 -4.601073,-0.77238 -8.000094,-2.397784 -10.193232,-4.876548 -2.125682,-2.588935 -3.535433,-5.345381 -4.24022,-8.276019 -0.662061,-2.753029 -0.879105,-5.194192 -0.638551,-7.318795 0.219325,-2.213433 0.693036,-4.16119 1.41701,-5.838378 0.702667,-1.766013 1.514417,-3.273428 2.43399,-4.527934 0.98707,-1.364608 1.882924,-2.522297 2.688942,-3.467714 0.649766,-0.813877 1.156185,-1.450414 1.514824,-1.912432 0.358644,-0.461993 0.461012,-1.001362 0.311504,-1.623053 -0.234921,-0.976868 -1.105778,-1.282218 -2.615499,-0.919153 -1.864948,0.448491 -4.233774,1.721313 -7.110479,3.822317 -2.876704,2.100951 -5.598617,4.676697 -8.151596,7.733173 -2.464166,3.035118 -4.460753,6.429188 -6.000898,10.18152 -1.451332,3.730974 -1.727646,7.465096 -0.830664,11.194993 0.512563,2.131374 1.600793,4.124057 3.267825,5.9778 1.667028,1.85373 3.843926,3.490389 6.533951,4.910232 2.668679,1.331027 5.74955,2.417077 9.242228,3.268124 3.47132,0.762235 7.320909,1.155535 11.552154,1.171355 -0.11254,2.65747 -0.04225,5.27183 0.200562,7.84384 0.242788,2.57203 0.662867,5.10226 1.260856,7.58887 1.345475,5.59484 3.529977,10.18725 6.554936,13.78117 3.003619,3.50513 6.422259,6.20589 10.260017,8.10126 3.905217,1.78522 8.051526,2.81036 12.435642,3.07125 4.403187,0.34954 8.699329,0.0196 12.871198,-0.98297 4.082435,-0.98241 7.717549,-2.46564 10.901666,-4.45193 3.2959902,-1.92 6.1945108,-4.12451 8.6980163,-6.60543 2.48216289,-2.56973 4.5675512,-5.23139 6.2537957,-7.98548 0.5444381,-0.88921 0.9867445,-1.76732 1.454894,-2.64803 0.00936,0.0111 0.018943,0.0234 0.029522,0.0342 1.7311034,2.12016 3.8369472,3.82445 6.306646,5.1094 2.448342,1.19614 5.207698,1.93896 8.284448,2.23241 3.076738,0.29346 6.30622,0.0385 9.680889,-0.77307 5.061991,-1.21733 9.21062,-3.1067 12.445942,-5.66964 3.324137,-2.58429 5.978673,-5.2013 7.974098,-7.84185 1.106838,-1.45878 2.080736,-2.97412 2.933831,-4.53805 0.03411,0.0477 0.06284,0.10073 0.09827,0.14839 1.752452,2.20895 3.772618,3.97753 6.064699,5.30517 2.270736,1.23883 4.711689,2.01458 7.323022,2.32603 2.700166,0.29001 5.383753,0.11582 8.047981,-0.52488 3.285856,-0.7902 6.104962,-2.35985 8.452206,-4.70921 2.436056,-2.37073 4.425866,-4.82788 5.977226,-7.36164 0.804277,-1.31359 1.525483,-2.71239 2.209829,-4.143764 1.704883,2.043804 3.753352,3.700804 6.158777,4.952294 2.448343,1.19615 5.214188,1.9374 8.290938,2.23086 3.07675,0.29345 6.29974,0.04 9.67441,-0.77151 5.06199,-1.21733 9.21061,-3.10671 12.44594,-5.669644 3.32415,-2.584298 5.9852,-5.202876 7.98059,-7.843412 1.21268,-1.598216 2.26181,-3.262538 3.16991,-4.987028 1.90872,2.077456 4.10704,3.803192 6.59809,5.17691 2.4697,1.284969 5.03104,2.169611 7.68513,2.658658 2.63272,0.400233 5.10185,0.328119 7.41084,-0.227157 6.12769,-1.473614 11.04186,-4.489234 14.73812,-9.041927 0.84198,-0.01461 1.61722,-0.106776 2.3277,-0.277636 l 2.26356,-0.544351 c 3.90748,-0.939688 7.14713,-2.327794 9.71133,-4.165667 2.65301,-1.859243 4.77135,-3.781986 6.36202,-5.761538 1.92457,-2.153811 3.3781,-4.518773 4.3539,-7.102013 0.92972,-2.384272 2.05702,-5.895624 3.38359,-10.536023 1.30521,-4.72921 2.4628,-10.646989 3.47917,-17.749261 1.55242,-0.185461 2.94122,-0.287371 4.15977,-0.298538 1.04095,0.03154 2.00088,0.133832 2.88556,0.296822 0.97355,0.14162 1.54579,0.56243 1.71666,1.272934 0.25629,1.065731 0.14217,2.550082 -0.34014,4.450989 -0.50371,1.812116 -1.02866,3.910082 -1.58179,6.297727 -0.4643,2.366297 -0.82941,4.947473 -1.09815,7.736445 -0.26878,2.788983 -0.0516,5.650682 0.65315,8.581336 0.44849,1.864949 1.26132,3.496416 2.44501,4.902739 1.18369,1.406323 2.6843,2.552951 4.49302,3.433181 1.78734,0.791407 3.78633,1.296522 5.99976,1.515834 2.21344,0.219325 4.60838,0.02019 7.18379,-0.59916 3.28584,-0.790195 6.09843,-2.358272 8.4457,-4.707646 2.43606,-2.370725 4.43236,-4.829441 5.98372,-7.363195 0.34358,-0.561161 0.62227,-1.185672 0.944,-1.768287 1.26832,1.935407 2.93655,3.525667 5.10975,4.681657 3.74894,1.916705 8.15437,2.270582 13.21638,1.053245 3.28586,-0.790198 6.10494,-2.359837 8.45221,-4.709211 2.43606,-2.370725 4.42587,-4.827879 5.97723,-7.361633 1.82116,-2.974436 3.3392,-6.24651 4.54548,-9.824631 1.40522,-3.531999 3.00475,-9.179184 4.80242,-16.939053 0.85105,-3.492678 1.78347,-6.065513 2.79524,-7.717975 1.07922,-1.762633 2.59365,-2.880582 4.54739,-3.350426 2.5754,-0.619344 5.16991,-0.772207 7.78129,-0.460749 2.61136,0.311502 5.20586,0.158602 7.78126,-0.460742 -0.9477,1.918876 -2.25444,4.110636 -3.91597,6.576963 -1.68285,2.377502 -3.47468,4.87435 -5.38128,7.493547 l -5.78457,7.590546 c -1.92792,2.530389 -3.65861,4.918316 -5.18522,7.164298 -1.52664,2.245988 -2.73779,4.233198 -3.63941,5.953133 -0.81276,1.698528 -1.11159,2.98835 -0.89801,3.876443 0.1495,0.621666 0.49908,1.29131 1.0465,2.005194 0.52617,0.624953 1.18401,1.220517 1.97655,1.781492 0.77116,0.472165 1.56284,0.840203 2.38011,1.113396 0.90606,0.251854 1.76202,0.285008 2.56125,0.09281 1.59854,-0.384423 3.3554,-1.278 5.27317,-2.678649 1.93917,-1.31183 4.46131,-2.338983 7.56957,-3.086471 2.13134,-0.512554 4.02666,-0.830409 5.68925,-0.948493 1.66257,-0.11795 3.24101,-0.214867 4.72596,-0.290232 1.50635,0.01349 2.99911,-0.01915 4.48412,-0.0944 1.485,-0.07524 3.16241,-0.333903 5.02736,-0.782395 3.28585,-0.790198 6.09844,-2.358275 8.44571,-4.707649 2.43605,-2.370725 4.43236,-4.829441 5.98372,-7.363195 0.80418,-1.313436 1.51905,-2.710994 2.20335,-4.142208 1.70475,2.043833 3.75983,3.699243 6.16526,4.950737 2.44834,1.196143 5.20769,1.938964 8.28444,2.232416 3.07675,0.293452 6.30624,0.03849 9.68091,-0.773071 5.06202,-1.21734 9.21062,-3.106707 12.44594,-5.669644 3.32414,-2.584295 5.97871,-5.201315 7.97409,-7.841848 2.35402,-3.102578 4.13927,-6.438915 5.34552,-10.017026 0.0708,-0.486776 0.15174,-0.933646 0.24405,-1.331588 0.0922,-0.397912 0.14839,-0.737776 0.17305,-1.025581 0.0922,-0.398038 0.0956,-0.775677 0.0102,-1.130879 -0.17084,-0.710404 -0.6293,-1.259742 -1.3791,-1.643081 -0.66094,-0.404672 -1.34708,-0.515548 -2.0576,-0.344679 -0.44406,0.106791 -0.81032,0.332812 -1.10148,0.684571 -0.31249,0.263022 -0.53688,0.505388 -0.67177,0.7257 -0.2699,0.440652 -0.42165,0.803491 -0.4463,1.091295 -0.95447,2.672059 -2.27953,5.15087 -3.98376,7.439593 -1.41308,1.936842 -3.24926,3.885934 -5.50431,5.837386 -2.27642,1.86268 -4.97175,3.163478 -8.07999,3.910963 -3.19707,0.768846 -6.20066,0.367393 -9.02219,-1.208683 -2.82155,-1.576098 -4.71605,-4.360742 -5.6771,-8.357065 0.75324,0.0067 1.44931,-0.02272 2.09228,-0.08348 1.12981,0.01017 2.1837,-0.09854 3.16057,-0.333461 4.17393,-1.003768 7.46973,-2.550109 9.88104,-4.633088 2.47875,-2.193134 4.27212,-4.501922 5.37945,-6.928907 1.19612,-2.4483364 1.88278,-4.8678527 2.05934,-7.2588871 0.15525,-2.4798597 0.0418,-4.51852836 -0.34262,-6.1170499 -0.42714,-1.7761477 -1.24808,-3.4125487 -2.45312,-4.9076844 -1.11631,-1.5164632 -2.48994,-2.7373038 -4.12104,-3.6602469 -1.65247,-1.0117527 -3.46338,-1.7000147 -5.43172,-2.0721487 -1.96835,-0.372134 -3.97074,-0.317995 -6.0133,0.17321 -2.93061,0.704765 -5.89,2.2644754 -8.88026,4.6745154 -2.90144,2.3887321 -5.40921,5.4346303 -7.52491,9.1374887 -2.13706,3.614058 -3.64045,7.7306061 -4.50163,12.3530339 -0.86119,4.622431 -0.68245,9.465092 0.53489,14.527096 0.0585,0.24343 0.1445,0.468016 0.21107,0.706055 -0.67977,1.815829 -1.43866,3.527403 -2.35565,5.025151 -0.96906,1.830076 -2.20477,3.533649 -3.70326,5.115289 -1.40973,1.560253 -2.99679,2.557794 -4.77294,2.98493 -2.13137,0.512563 -4.12874,0.616091 -5.98694,0.311336 -1.8582,-0.304619 -3.8159,-0.638184 -5.87306,-0.98896 -1.96836,-0.372131 -4.15043,-0.644773 -6.54145,-0.821337 -2.30225,-0.197966 -4.96439,0.06543 -7.98382,0.791553 2.15842,-3.525244 4.82128,-7.311647 7.9813,-11.359611 3.22749,-4.158113 6.31926,-8.091335 9.27694,-11.808778 2.95767,-3.717466 5.45888,-7.000774 7.50036,-9.8402936 2.04152,-2.8395415 2.94575,-4.7460596 2.71083,-5.7229276 -0.17084,-0.7104036 -0.53024,-1.421451 -1.07765,-2.1352975 -0.47989,-0.8239543 -1.07685,-1.52841744 -1.78051,-2.11076575 -0.72501,-0.67113615 -1.50189,-1.18751865 -2.34051,-1.54949975 -0.74979,-0.3833016 -1.43761,-0.5005659 -2.05914,-0.351098 -0.97687,0.2349217 -2.06897,0.9686355 -3.27631,2.19843481 -1.22871,1.1409767 -2.8667,1.95536959 -4.90926,2.44657429 -1.50972,0.3630648 -3.04872,0.59523 -4.62249,0.6919564 -1.48502,0.075248 -3.05692,0.1705941 -4.71951,0.2886786 -1.68395,0.029221 -3.49172,0.1376157 -5.42076,0.3196459 -1.84022,0.1606689 -3.82609,0.4935084 -5.95748,1.0060743 -3.01943,0.7261265 -5.41619,1.9115302 -7.18111,3.5571883 -1.69745,1.5355779 -2.68452,4.4547176 -2.96676,8.7500336 -0.43745,6.775163 -1.34085,12.392814 -2.71016,16.855619 -1.30183,4.352612 -2.36303,7.56541 -3.17919,9.640551 -0.7982,2.540542 -1.79832,4.803322 -3.01243,6.786279 -0.96905,1.830076 -2.20476,3.533649 -3.70326,5.115289 -1.40972,1.560253 -3.00484,2.552861 -4.78099,2.979997 -1.3321,0.320352 -2.49992,0.137039 -3.51277,-0.558893 -0.94545,-0.805997 -1.60154,-1.967291 -1.9646,-3.477012 -0.76885,-3.197069 -1.14926,-6.345825 -1.14351,-9.447338 0.0731,-3.211654 0.23217,-6.258035 0.47952,-9.135814 0.33617,-2.899137 0.62374,-5.592671 0.86773,-8.093871 0.22264,-2.59 0.0928,-4.907366 -0.39845,-6.949927 -0.12813,-0.532803 -0.64577,-1.118399 -1.54852,-1.746845 -0.92396,-0.717163 -2.01741,-1.345911 -3.27531,-1.888898 -1.25794,-0.542975 -2.57907,-0.972158 -3.97186,-1.294793 -1.39283,-0.322664 -2.57864,-0.370632 -3.55552,-0.135707 -0.79927,0.192212 -1.44759,0.630796 -1.94105,1.313082 -0.51487,0.593566 -0.86306,1.286186 -1.04744,2.082136 -0.35078,2.05716 -0.77362,4.790107 -1.26942,8.197356 -0.40699,3.385874 -0.72615,6.941871 -0.95893,10.661636 -0.23282,3.719762 -0.34241,7.363233 -0.33012,10.930127 0.007,2.058695 0.13168,3.866766 0.32673,5.53602 -0.58985,1.432322 -1.23077,2.798329 -1.97835,4.019287 -0.969,1.830063 -2.20475,3.533646 -3.70325,5.115289 -1.40968,1.56024 -2.99832,2.551289 -4.77445,2.978422 -1.33212,0.320355 -2.49656,0.179769 -3.48804,-0.427287 -0.99147,-0.607055 -1.66586,-1.662849 -2.02892,-3.172558 -0.6407,-2.664215 -0.79512,-5.446786 -0.45894,-8.345926 0.40367,-3.009321 0.93197,-5.905505 1.5773,-8.691106 0.64535,-2.785604 1.20998,-5.320534 1.69568,-7.598039 0.55304,-2.387624 0.64268,-4.337233 0.27962,-5.846967 -0.42714,-1.776148 -1.3176,-3.156842 -2.68226,-4.143872 -1.27588,-1.00841 -2.71406,-1.322046 -4.31259,-0.937623 -0.79927,0.192212 -1.53809,0.464422 -2.20592,0.81263 -0.66769,0.348442 -1.36725,0.755676 -2.10244,1.214352 -0.75655,0.369812 -1.64569,0.772041 -2.66861,1.206042 -0.93415,0.412523 -2.1532,0.799953 -3.66291,1.163015 -1.59853,0.384423 -2.98891,0.479787 -4.16136,0.291996 -1.17252,-0.187773 -1.87017,-0.766827 -2.1051,-1.743721 -0.25629,-1.065731 -0.25602,-2.240043 -8.6e-4,-3.522668 0.34404,-1.30397 0.2999,-2.844558 -0.12724,-4.620705 -0.1495,-0.621666 -0.58807,-1.269922 -1.31309,-1.941059 -0.74638,-0.759999 -1.5925,-1.353919 -2.54122,-1.783332 -0.9701,-0.518192 -1.99924,-0.87972 -3.0829,-1.088864 -1.105,-0.297881 -2.10125,-0.340973 -2.98933,-0.127403 -0.79926,0.192212 -1.57789,0.662134 -2.33782,1.4085 -0.76,0.746385 -1.43303,1.6552 -2.01874,2.735441 -0.58568,1.080342 -0.99343,2.308972 -1.22727,3.680407 -0.16644,1.26126 -0.0941,2.556068 0.2263,3.888176 0.40578,1.687347 0.98435,3.099385 1.72741,4.235889 0.74307,1.136541 1.47521,2.040517 2.20024,2.71165 0.85659,0.827367 1.80321,1.447726 2.84076,1.855791 -0.43742,6.775157 -1.34086,12.392817 -2.71013,16.855613 -1.30187,4.35262 -2.36307,7.565419 -3.17923,9.64056 -1.01512,2.029038 -2.15863,3.905755 -3.43682,5.622285 -1.1433,1.496182 -2.53231,2.953989 -4.16234,4.379389 -1.65141,1.336499 -3.62765,2.282914 -5.93663,2.838187 -0.62167,0.149501 -1.07849,0.208765 -1.36626,0.184099 2.23602,-4.765144 3.55657,-9.823603 3.95913,-15.18123 0.40255,-5.357626 0.0621,-10.299293 -1.02707,-14.828456 -0.40578,-1.687335 -1.16896,-3.293966 -2.28527,-4.810429 -1.11618,-1.516494 -2.45856,-2.78852 -4.02221,-3.821635 -1.49617,-1.143288 -3.14044,-1.922155 -4.93119,-2.336999 -1.81211,-0.503707 -3.60498,-0.543588 -5.38116,-0.116445 -1.15446,0.277632 -2.26302,0.732627 -3.3321,1.36547 -1.00166,0.522756 -1.89568,1.114565 -2.67698,1.772203 -0.71382,0.547539 -1.3407,1.075103 -1.87691,1.579797 -0.53634,0.504859 -0.83979,0.809911 -0.90718,0.919989 0.0679,-0.110858 0.46338,-0.814326 1.18398,-2.114973 0.69924,-1.38939 1.5458,-3.144177 2.53956,-5.262028 0.9938,-2.117848 2.06964,-4.486185 3.22304,-7.112148 1.13207,-2.714757 2.08439,-5.38659 2.86122,-8.015942 0.84426,-2.739492 1.44682,-5.327216 1.80096,-7.760967 0.42159,-2.5439101 0.40567,-4.7507947 -0.0428,-6.6157429 -0.27763,-1.1544689 -0.93216,-2.3092812 -1.96304,-3.47051732 -1.05211,-1.25006686 -2.29389,-2.31418148 -3.72604,-3.19102188 -1.36473,-0.9870402 -2.88851,-1.6569529 -4.56912,-2.0043613 -1.6131,-0.4575635 -3.12733,-0.5140304 -4.54823,-0.1723269 -3.46349,0.8329174 -6.52683,2.7439697 -9.18995,5.7329187 -2.57434,2.9676755 -4.79187,6.6469841 -6.64793,11.0389446 -1.85602,4.391964 -3.33831,9.351405 -4.45132,14.879884 -1.04554,5.418306 -1.70812,11.072271 -1.98253,16.962738 -0.27442,5.890467 -0.16854,11.787063 0.3102,17.684293 0.47883,5.897221 1.33533,11.417977 2.57402,16.568781 0.0592,0.246325 0.14681,0.477582 0.21422,0.719145 -0.90587,2.215391 -2.024,4.322967 -3.46855,6.262958 -1.41307,1.936842 -3.24277,3.884372 -5.49783,5.835827 -2.27644,1.862686 -4.97173,3.163475 -8.07998,3.910963 -3.19707,0.768846 -6.20715,0.368952 -9.02869,-1.207121 -2.82154,-1.576102 -4.70954,-4.362308 -5.6706,-8.35863 0.75324,0.0067 1.4493,-0.02272 2.09227,-0.08348 1.12981,0.01017 2.18372,-0.09854 3.16058,-0.333464 4.17394,-1.003768 7.46325,-2.548548 9.87454,-4.631523 2.47876,-2.193138 4.27214,-4.501925 5.37947,-6.92891 1.19611,-2.448337 1.88277,-4.867853 2.05933,-7.258887 0.15526,-2.47986 0.0418,-4.518529 -0.34262,-6.11705 -0.42714,-1.776148 -1.24165,-3.414093 -2.4467,-4.909229 -1.11618,-1.516493 -2.4899,-2.737312 -4.12101,-3.660252 -1.65242,-1.011766 -3.46337,-1.700018 -5.43173,-2.072149 -1.96834,-0.372134 -3.97722,-0.316436 -6.01978,0.174768 -2.93064,0.704775 -5.89,2.264476 -8.880256,4.674516 -2.901471,2.388741 -5.409222,5.434633 -7.524921,9.137492 -2.137042,3.614055 -3.63394,7.729041 -4.495133,12.351472 -0.86118,4.622427 -0.682437,9.465089 0.534898,14.527093 0.05909,0.245696 0.145535,0.472295 0.212645,0.7126 -0.679326,1.813792 -1.441108,3.522348 -2.35723,5.018647 -0.969043,1.830072 -2.204751,3.533646 -3.703283,5.115301 -1.40969,1.56024 -3.003257,2.55935 -4.779392,2.98648 -2.753041,0.66206 -5.119769,0.1948 -7.099337,-1.39588 -1.890786,-1.61207 -3.211435,-3.969379 -3.958923,-7.077635 -0.277632,-1.154468 -0.50826,-2.323876 -0.69716,-3.49971 -0.209636,-1.264824 -0.346818,-2.406094 -0.404145,-3.425697 -0.100031,-1.19718 -0.188895,-2.350136 -0.267574,-3.458528 1.771706,-2.398885 3.563467,-5.316265 5.366681,-8.756076 1.781802,-3.528626 3.473321,-7.226208 5.080925,-11.088698 1.675017,-3.972665 3.199828,-8.000149 4.565759,-12.086356 1.454706,-4.107556 2.62668,-8.006514 3.523826,-11.698164 0.875766,-3.780444 1.46368,-7.212626 1.757144,-10.28938 0.36096,-3.186921 0.312065,-5.712208 -0.13643,-7.577168 -0.277632,-1.154469 -0.874523,-2.279469 -1.795183,-3.373262 -0.942017,-1.182606 -2.073291,-2.179068 -3.395268,-2.988479 -1.23313,-0.830684 -2.603641,-1.436463 -4.10662,-1.826588 -1.502979,-0.390178 -3.007234,-0.405237 -4.516955,-0.04217 -3.197068,0.768846 -6.108629,2.737534 -8.729059,5.904194 -2.531612,3.145273 -4.767445,7.111642 -6.715678,11.90154 -1.9696,4.7011 -3.577213,9.922797 -4.82511,15.6716 -1.159109,5.727451 -2.014707,11.572608 -2.555549,17.527146 -0.562159,5.865729 -0.72015,11.630454 -0.483083,17.303967 0.325896,5.652166 1.019218,10.704282 2.087054,15.144632 0.04979,0.207054 0.117746,0.395495 0.171908,0.598569 -0.904906,2.208893 -2.011389,4.310353 -3.452168,6.245263 -1.413073,1.93684 -3.249299,3.88594 -5.50435,5.8374 -2.2764,1.86267 -4.97169,3.16346 -8.07994,3.91095 -3.197069,0.76885 -6.20065,0.36739 -9.022195,-1.20868 -2.821551,-1.5761 -4.716084,-4.36074 -5.677138,-8.35706 0.75324,0.007 1.44935,-0.0227 2.092281,-0.0835 1.129812,0.0102 2.1837,-0.0985 3.160606,-0.33347 4.173948,-1.00377 7.469738,-2.55011 9.881039,-4.63309 2.478764,-2.193134 4.272124,-4.501919 5.379453,-6.928903 1.196117,-2.448337 1.882777,-4.867853 2.059351,-7.258891 0.155253,-2.479859 0.04179,-4.518528 -0.342626,-6.11705 -0.427136,-1.776147 -1.248071,-3.412548 -2.45312,-4.907684 -1.116181,-1.516493 -2.489894,-2.737313 -4.120995,-3.660256 -1.652459,-1.011756 -3.46338,-1.700015 -5.431727,-2.072148 -1.968346,-0.372134 -3.970738,-0.317996 -6.013294,0.173208 -2.930642,0.704774 -5.890026,2.264482 -8.88026,4.674516 -2.9014574,2.388738 -5.4092081,5.43463 -7.5249072,9.137488 -2.1370543,3.614058 -3.6404346,7.730603 -4.50162764,12.353034 -0.86119303,4.622436 -0.68247491,9.465096 0.53485934,14.527106 0.039381,0.16375 0.09939,0.31363 0.1421832,0.47496 -0.88257959,1.8795 -1.87160634,3.74297 -3.0551129,5.57868 -1.5266405,2.24599 -3.2836922,4.31393 -5.2723133,6.20132 -1.8998489,1.86603 -3.9520685,3.49019 -6.1576575,4.86609 -2.20559,1.3759 -4.508329,2.35015 -6.90613,2.92679 -6.394111,1.53768 -11.759436,0.89992 -16.098558,-1.90826 -4.271655,-2.91835 -7.430696,-8.63913 -9.480948,-17.16463 -1.067836,-4.44035 -1.611173,-9.05056 -1.634712,-13.835996 8.216349,-2.163778 15.309455,-5.282876 21.283206,-9.349867 6.062573,-4.088365 10.965512,-8.507688 14.707848,-13.259333 3.8311494,-4.773003 6.4893239,-9.544148 7.9721705,-14.316077 1.571647,-4.793284 1.9354581,-8.91844 1.1025438,-12.381923 -0.4484915,-1.864948 -1.4162586,-3.748711 -2.9056991,-5.645149 -1.5107891,-1.985266 -3.3314252,-3.707587 -5.4672392,-5.16676 -2.135839,-1.459167 -4.551971,-2.523529 -7.248765,-3.190189 -2.607978,-0.688059 -5.245304,-0.713332 -7.909519,-0.07263 z m 3.64245,8.708758 c 1.687347,-0.405781 3.092599,-0.228971 4.215607,0.534352 1.101556,0.674453 1.835354,1.766582 2.198419,3.276303 0.768843,3.197056 0.711993,6.8784 -0.167197,11.035439 -0.879149,4.157042 -2.611897,8.285074 -5.196365,12.382499 -2.584472,4.097412 -6.037515,7.88541 -10.366629,11.369019 -4.26169,3.373419 -9.393473,5.87605 -15.389613,7.505942 0.558801,-5.489137 1.625475,-10.819733 3.200496,-15.9896 1.553638,-5.258673 3.425087,-9.985381 5.611602,-14.17499 2.253986,-4.29977 4.733786,-7.853718 7.43965,-10.665126 2.705838,-2.811401 5.523413,-4.569069 8.45403,-5.273838 z M 258.67805,-20.614444 c -1.50971,0.363062 -2.83272,1.101708 -3.97259,2.221321 -1.16127,1.030755 -2.11488,2.340222 -2.86022,3.928612 -0.67786,1.478254 -1.13683,3.096106 -1.374,4.8441101 -0.23724,1.7480353 -0.15183,3.4602325 0.25395,5.1475671 0.57663,2.3978013 1.73898,4.09686889 3.48023,5.08727291 1.74128,0.99039499 3.58694,1.24975279 5.54067,0.77990929 1.42093,-0.3417127 2.66479,-1.01764936 3.73721,-2.02717218 1.1399,-1.11961852 2.05226,-2.41909972 2.73014,-3.89733162 0.74539,-1.5883871 1.18781,-3.2459594 1.33623,-4.9726335 0.21589,-1.8368361 0.11391,-3.6461491 -0.31323,-5.4222971 -0.53392,-2.220187 -1.62545,-3.835185 -3.27796,-4.846929 -1.56369,-1.033105 -3.32674,-1.312326 -5.28052,-0.842473 z M 75.049978,23.827433 c 1.065732,-0.256292 1.743525,0.240192 2.042531,1.483537 0.320351,1.332108 0.370975,3.291645 0.148342,5.881658 -0.222632,2.590012 -0.650427,5.512583 -1.27776,8.763576 -0.559919,3.140819 -1.304538,6.465913 -2.244397,9.97995 -0.939834,3.51403 -1.948276,6.946243 -3.01964,10.304005 -1.092729,3.268978 -2.295783,6.28377 -3.60547,9.04124 -1.220859,2.736122 -2.438558,4.906469 -3.649273,6.512825 -0.01337,-5.915195 0.385398,-11.882608 1.192657,-17.901202 0.807265,-6.018622 1.743577,-11.499416 2.807112,-16.452342 1.152361,-4.974287 2.377067,-9.074371 3.668745,-12.29723 1.380503,-3.244221 2.693808,-5.017011 3.937103,-5.316005 z M 157.50693,3.9978018 c 1.68732,-0.405775 2.7444,0.2821699 3.17154,2.0583427 0.49121,2.0425742 0.4082,4.8316875 -0.24386,8.3704335 -0.67345,3.449968 -1.70668,7.170791 -3.09397,11.168197 -1.40861,3.908585 -3.00605,7.815659 -4.79125,11.72086 -1.80659,3.816422 -3.55738,7.057153 -5.26502,9.722451 0.0687,-5.183392 0.38654,-10.28336 0.9633,-15.307108 0.66559,-5.045113 1.46478,-9.557631 2.38664,-13.537047 1.0107,-4.000777 2.10171,-7.271287 3.27647,-9.8084365 1.15343,-2.6259563 2.35283,-4.0886933 3.59615,-4.3876927 z M 26.490516,76.231648 c 1.598534,-0.384423 2.612786,0.307031 3.039907,2.083116 0.34171,1.42092 0.313285,3.261593 -0.0836,5.517727 -0.3968,2.256113 -1.156155,4.555223 -2.284834,6.893406 -1.061217,2.22801 -2.499861,4.263046 -4.310884,6.107717 -1.811036,1.844673 -3.912656,3.05329 -6.310432,3.629916 -0.405781,-1.687345 -0.458086,-3.834923 -0.146612,-6.446287 0.311496,-2.611383 0.877718,-5.139825 1.697241,-7.591532 0.908358,-2.473084 2.073269,-4.68128 3.486352,-6.618137 1.41307,-1.936855 3.047917,-3.127435 4.912865,-3.575926 z M 112.14764,55.632423 c 1.59853,-0.384423 2.60632,0.308587 3.03344,2.084672 0.34171,1.42092 0.3197,3.260049 -0.0771,5.516165 -0.39693,2.256143 -1.16267,4.556791 -2.29136,6.894975 -1.06123,2.228013 -2.49338,4.261488 -4.3044,6.106158 -1.81102,1.844671 -3.91915,3.054852 -6.31692,3.631477 -0.40578,-1.687347 -0.45154,-3.836499 -0.14009,-6.447857 0.31137,-2.611353 0.87768,-5.139815 1.69724,-7.591532 0.90834,-2.473078 2.06675,-4.679712 3.47982,-6.616566 1.41307,-1.936854 3.05446,-3.129007 4.91938,-3.577492 z M 367.64255,-5.8101844 c 1.59849,-0.3844138 2.61277,0.3070342 3.03989,2.0831189 0.34171,1.4209206 0.31329,3.26159301 -0.0836,5.5177243 -0.39692,2.2561433 -1.15619,4.5552322 -2.28484,6.8934072 -1.06123,2.228013 -2.4999,4.263055 -4.31093,6.107729 -1.81102,1.84467 -3.91262,3.053281 -6.31042,3.629915 -0.40578,-1.687347 -0.45809,-3.834925 -0.14657,-6.446298 0.31137,-2.611353 0.87768,-5.1398155 1.69722,-7.591529 0.90834,-2.4730782 2.07325,-4.68127382 3.48632,-6.6181282 1.41308,-1.9368573 3.04796,-3.1274447 4.91292,-3.5759392 z M 158.9311,45.083544 c 2.22023,-0.533934 3.81016,-0.162534 4.77349,1.108882 0.96337,1.271407 1.75789,3.189964 2.37724,5.765366 0.74749,3.108255 1.11454,6.593441 1.10207,10.448097 -0.0337,3.765847 -0.43208,7.384546 -1.19432,10.855854 l -0.40328,0.09698 c -0.53281,0.128131 -1.14488,0.507404 -1.83732,1.143672 -0.62499,0.526043 -1.22049,1.184136 -1.78149,1.976574 -0.56103,0.792537 -1.0066,1.653403 -1.34724,2.580813 -0.25186,0.906058 -0.29651,1.714208 -0.12565,2.424687 0.19221,0.799267 0.7297,1.46742 1.61109,2.007028 -1.21072,1.606397 -2.52714,2.582447 -3.94808,2.924159 -1.77613,0.427134 -3.41885,-0.163647 -4.93304,-1.772324 -1.42536,-1.630039 -2.46732,-3.822267 -3.12939,-6.575295 -1.19597,-4.973203 -1.65519,-9.4152 -1.37636,-13.333924 0.36771,-3.940098 1.10736,-7.314556 2.21804,-10.118117 1.11073,-2.803573 2.41099,-4.993774 3.90948,-6.575401 1.56596,-1.691827 2.93017,-2.679395 4.08464,-2.957027 z"
             style="color:#000000;font-style:normal;font-variant:normal;font-weight:normal;font-stretch:normal;font-size:medium;line-height:normal;font-family:sans-serif;font-variant-ligatures:normal;font-variant-position:normal;font-variant-caps:normal;font-variant-numeric:normal;font-variant-alternates:normal;font-variant-east-asian:normal;font-feature-settings:normal;font-variation-settings:normal;text-indent:0;text-align:start;text-decoration:none;text-decoration-line:none;text-decoration-style:solid;text-decoration-color:#000000;letter-spacing:normal;word-spacing:normal;text-transform:none;writing-mode:lr-tb;direction:ltr;text-orientation:mixed;dominant-baseline:auto;baseline-shift:baseline;text-anchor:start;white-space:normal;shape-padding:0;shape-margin:0;inline-size:0;clip-rule:nonzero;display:inline;overflow:visible;visibility:visible;opacity:1;isolation:auto;mix-blend-mode:normal;color-interpolation:sRGB;color-interpolation-filters:linearRGB;solid-color:#000000;solid-opacity:1;vector-effect:none;fill:#3f51b5;fill-opacity:1;fill-rule:nonzero;stroke:#ffffff;stroke-width:13.7009;stroke-linecap:butt;stroke-linejoin:round;stroke-miterlimit:4;stroke-dasharray:none;stroke-dashoffset:0;stroke-opacity:1;paint-order:markers stroke fill;color-rendering:auto;image-rendering:auto;shape-rendering:auto;text-rendering:auto;enable-background:accumulate;stop-color:#000000;stop-opacity:1"
             id="path1426" />
          <path
             transform="matrix(3.3302795,-0.80088114,0.80088114,3.3302795,-125.03751,-2.490672)"
             id="path1440"
             d="m 42.186501,31.751367 c -0.268772,-0.09722 -0.395806,-0.201761 -0.690734,-0.568448 -0.447378,-0.55623 -1.178926,-1.251293 -1.639556,-1.557786 -1.885589,-1.254627 -4.36995,-1.277193 -7.613154,-0.06915 -0.538267,0.200497 -0.641101,0.22499 -0.879903,0.209583 -0.597716,-0.03857 -1.012152,-0.604099 -0.866523,-1.182445 0.04121,-0.163674 0.91445,-1.362006 4.446967,-6.102522 2.417626,-3.24437 4.448697,-5.956634 4.51349,-6.027252 0.446923,-0.487102 1.298004,-0.348856 1.58578,0.257588 0.100647,0.212096 2.404213,14.073024 2.367285,14.244328 -0.07256,0.336571 -0.311176,0.633893 -0.608378,0.758041 -0.161333,0.06739 -0.47973,0.08709 -0.615274,0.03806 z m -1.404664,-4.976818 c -0.114425,-0.695328 -0.215344,-1.287098 -0.224266,-1.315045 -0.01061,-0.03325 -0.144691,6.61e-4 -0.387842,0.09809 -0.877057,0.351412 -1.530788,0.289128 -2.425192,-0.231055 -0.196429,-0.114243 -0.507813,-0.287544 -0.691964,-0.385113 -0.322204,-0.170715 -0.34744,-0.176624 -0.669643,-0.1568 -0.251696,0.01549 -0.412406,0.05615 -0.647322,0.163792 l -0.3125,0.143193 -0.679602,0.921122 c -0.373781,0.506616 -0.67194,0.928782 -0.662576,0.938147 0.0094,0.0094 0.264963,-0.02559 0.567995,-0.07768 2.328424,-0.400242 4.214519,-0.08686 5.97454,0.992678 0.183857,0.112771 0.341515,0.19781 0.350351,0.188974 0.0088,-0.0088 -0.07755,-0.58497 -0.191979,-1.280298 z m -1.235792,-3.095167 c 0.163188,-0.08626 0.374401,-0.222605 0.469363,-0.303 l 0.172655,-0.146173 -0.302857,-1.818778 c -0.166572,-1.000328 -0.318813,-1.813197 -0.338315,-1.806375 -0.04259,0.0149 -2.460326,3.254239 -2.440898,3.27037 0.0074,0.0062 0.124035,0.04691 0.25908,0.0905 0.293392,0.0947 0.825192,0.356079 1.235762,0.607376 0.515584,0.315572 0.543039,0.318653 0.94521,0.106082 z"
             style="font-variation-settings:normal;opacity:1;vector-effect:none;fill:#e33371;fill-opacity:1;stroke:#ffffff;stroke-width:0.49999999;stroke-linecap:round;stroke-linejoin:round;stroke-miterlimit:4;stroke-dasharray:none;stroke-dashoffset:0;stroke-opacity:1;paint-order:markers stroke fill;stop-color:#000000;stop-opacity:1" />
        </g>
      </g>
    </g>
  </g>
</svg>
